<svg width="120" height="40" viewBox="0 0 120 40" fill="none" xmlns="http://www.w3.org/2000/svg">
<path d="M45.68 4.325C43.5229 4.31252 41.6733 6.0321 40.7547 8.0622C38.8613 12.2477 38.8601 17.8719 40.6705 22.0822C40.6534 22.0806 40.6364 22.0782 40.6193 22.0765C39.4499 21.9131 38.3184 21.5855 37.3161 21.0202C37.3149 21.0195 37.3137 21.0188 37.3125 21.0181C36.8846 20.7674 36.4829 20.4733 36.1146 20.1401C36.0082 19.9466 35.973 19.7652 36.0319 19.612C36.478 19.4976 36.9517 19.3572 37.3662 19.1614C37.4973 19.1616 37.6349 19.1651 37.7879 19.1748C37.8095 19.0804 37.824 18.9854 37.8344 18.8906C38.4883 18.4242 38.7487 17.7267 37.8933 16.6158C36.7252 15.0989 34.9903 14.9789 33.7923 15.6877C32.5207 16.3739 31.7713 17.9107 32.7712 19.6999C34.5953 22.9645 39.8996 21.2995 41.427 24.1348C41.4171 24.1594 41.4051 24.1819 41.3929 24.204C41.3908 24.204 41.3888 24.204 41.3867 24.204C38.8569 24.231 36.2408 24.4772 33.6978 24.8236C33.1084 24.9018 32.5211 24.984 31.9403 25.0737C30.6047 25.2801 29.0688 25.9912 27.707 25.7517C24.7241 25.2268 22.0883 22.6575 18.9758 21.9974C16.8456 21.5457 13.5169 21.1389 13.4201 23.9301C11.1109 23.2984 9.12512 22.5819 6.78122 22.6046C6.77982 22.6046 6.77842 22.6046 6.77712 22.6046C6.44206 22.6016 6.0991 22.6123 5.74672 22.6382C5.00798 22.6924 3.54632 22.8009 3.13702 23.5436C3.05443 23.6935 3.02501 23.8498 3.0285 24.0082C3.02887 24.3875 3.25275 24.7758 3.54992 25.1322C3.91978 25.5858 4.39641 25.9865 4.68942 26.2314C6.76552 27.9671 9.74762 28.5125 12.3613 28.885C13.8079 29.0911 15.2589 29.1552 16.7114 29.1185C16.9444 29.1128 17.1775 29.1045 17.4106 29.0937C17.4137 29.0936 17.4168 29.0934 17.4199 29.0932C17.6578 29.0822 17.8955 29.0684 18.1336 29.0524C23.9244 28.6642 29.7416 26.8814 35.4066 26.2748C37.2859 26.0735 39.8848 25.2383 41.7406 25.6164C42.3122 25.7506 42.8453 26.1209 43.3539 26.5854C44.098 27.3015 44.755 28.2292 45.4613 28.7873C45.464 28.7894 45.4669 28.7914 45.4696 28.7935C45.4699 28.7938 45.4703 28.7942 45.4706 28.7945C45.635 28.9511 45.7991 29.0943 45.963 29.2177C47.9863 30.7399 50.5445 31.1932 52.5776 32.6521C53.5259 33.3328 54.7889 35.4137 56.0187 35.6514C56.0247 35.6526 56.0308 35.6523 56.0368 35.6535C56.1059 35.6658 56.1752 35.6752 56.244 35.6752C56.2451 35.6752 56.246 35.6752 56.2471 35.6752C56.2478 35.6752 56.2485 35.6752 56.2492 35.6752C56.2988 35.6752 56.3456 35.6713 56.3898 35.6633C56.824 35.5877 57.0036 35.1612 57.0337 34.592C57.1265 33.2982 56.4649 31.253 56.0441 30.8165L59.9994 29.8657L63.9547 30.8165C63.5332 31.2537 62.8703 33.3047 62.9656 34.5982C62.9963 35.1569 63.173 35.5753 63.5935 35.6586C63.5989 35.6597 63.6035 35.6623 63.609 35.6633C63.6092 35.6633 63.6093 35.6633 63.6095 35.6633C63.6536 35.6712 63.7002 35.6752 63.7495 35.6752C63.7504 35.6752 63.7512 35.6747 63.7521 35.6747C63.7532 35.6747 63.7541 35.6752 63.7552 35.6752C63.8246 35.6752 63.8944 35.6655 63.964 35.653C63.9695 35.652 63.975 35.6525 63.9805 35.6514C65.2103 35.4137 66.4729 33.3328 67.4211 32.6521C69.4542 31.1932 72.0124 30.7398 74.0357 29.2177C74.1995 29.0944 74.3634 28.9514 74.5277 28.795C74.5279 28.7948 74.528 28.7946 74.5282 28.7944C74.5314 28.7919 74.5348 28.7897 74.538 28.7872C75.2452 28.2284 75.9032 27.2992 76.6485 26.5827C77.1562 26.1197 77.6883 25.7503 78.2587 25.6164C80.1145 25.2383 82.7128 26.0734 84.5922 26.2748C90.4906 26.9063 96.5532 28.813 102.58 29.0932C102.583 29.0933 102.586 29.0935 102.589 29.0937C102.822 29.1044 103.055 29.1127 103.288 29.1185C104.741 29.1551 106.191 29.091 107.638 28.8849C110.252 28.5124 113.234 27.967 115.31 26.2313C115.603 25.9864 116.08 25.5858 116.45 25.1321C116.747 24.7758 116.971 24.3875 116.971 24.0081C116.974 23.8498 116.945 23.6934 116.863 23.5435C116.454 22.8009 114.991 22.6924 114.253 22.6382C113.9 22.6123 113.558 22.6016 113.223 22.6046C113.222 22.6046 113.22 22.6045 113.219 22.6046C110.875 22.5819 108.888 23.2983 106.579 23.9301C106.482 21.1389 103.154 21.5457 101.024 21.9974C97.911 22.6574 95.2753 25.2268 92.2923 25.7517C90.9305 25.9911 89.3946 25.28 88.059 25.0737C87.4782 24.984 86.8914 24.9018 86.302 24.8236C83.7594 24.4772 81.1434 24.231 78.6141 24.204C78.6117 24.2039 78.6093 24.204 78.6069 24.204C78.5947 24.1819 78.5827 24.1593 78.5728 24.1347C80.1004 21.2997 85.4045 22.9644 87.2286 19.6998C88.2284 17.9107 87.479 16.3739 86.2075 15.6876C85.0095 14.9789 83.2745 15.0988 82.1065 16.6157C81.2511 17.7267 81.5114 18.4241 82.1654 18.8905C82.1758 18.9854 82.1898 19.0803 82.2114 19.1747C82.3642 19.165 82.5022 19.1616 82.6331 19.1613C83.0478 19.3573 83.5217 19.4975 83.9679 19.6119C84.0268 19.7653 83.9913 19.9468 83.8847 20.1406C83.5166 20.4735 83.115 20.7674 82.6874 21.018C82.6862 21.0187 82.685 21.0194 82.6838 21.0201C81.6814 21.5855 80.5492 21.9131 79.3796 22.0764C79.3627 22.078 79.3458 22.0805 79.3289 22.0821C81.1392 17.872 81.1386 12.2478 79.2452 8.06214C78.2851 5.94024 76.3076 4.15864 74.0254 4.33834C73.3225 4.36529 72.6041 4.57568 71.9041 5.01478C69.1305 6.75468 69.7734 10.8759 72.6865 12.1188C73.9145 12.6427 75.0014 12.1869 76.1147 11.7229C76.296 11.6513 76.4788 11.5813 76.6578 11.5111C76.7063 11.6926 76.7514 11.8728 76.7984 12.0537L77.5627 15.6855C77.7968 17.3457 77.834 19.0202 77.5007 20.7622C77.2964 21.83 77.1334 23.3299 76.091 23.9294C75.1443 24.4738 73.7327 24.1538 72.6866 24.2255C70.2138 24.3948 67.6905 24.6658 65.2783 25.2601V25.3846C64.6755 25.5129 64.0709 25.6464 63.4598 25.7877L63.4536 25.7882C64.0539 23.8937 64.3255 21.4148 63.9088 19.4403C63.7571 18.7201 63.2799 18.1244 62.698 18.0585C62.6916 18.0577 62.6853 18.0571 62.6789 18.0564C62.6306 18.0519 62.5818 18.0512 62.5321 18.0543C62.5254 18.0548 62.5187 18.0552 62.512 18.0558C62.2545 18.0774 61.9822 18.201 61.7115 18.4661C61.137 19.029 60.8382 19.8704 60.6769 20.8256C60.399 22.2397 60.3959 23.897 60.3545 25.2667L60 26.7638L59.646 25.2678C59.6046 23.8988 59.601 22.2422 59.3235 20.8283C59.1624 19.872 58.8635 19.0295 58.2884 18.4662C58.0176 18.2009 57.7456 18.0774 57.488 18.0559C57.4814 18.0552 57.4749 18.0549 57.4683 18.0544C57.4188 18.0513 57.3698 18.052 57.3216 18.0565C57.3154 18.0572 57.3091 18.0573 57.303 18.0581C56.7207 18.1236 56.2435 18.7199 56.0917 19.4404C55.675 21.4149 55.946 23.8938 56.5464 25.7883L56.5402 25.7878C55.9295 25.6465 55.3247 25.513 54.722 25.3847V25.2602C52.3098 24.6659 49.7865 24.395 47.3137 24.2256C46.2675 24.1539 44.8565 24.4739 43.9098 23.9295C42.8673 23.3299 42.7043 21.8301 42.5001 20.7623C42.1663 19.018 42.2036 17.3413 42.4386 15.6789L43.2008 12.059C43.2483 11.8763 43.2935 11.6945 43.3424 11.5112C43.5234 11.5821 43.708 11.6533 43.8912 11.7257C45.0025 12.1888 46.0878 12.6419 47.3137 12.1189C50.2268 10.8761 50.8697 6.75492 48.0961 5.01492C47.3962 4.57592 46.678 4.36551 45.9753 4.33848C45.8766 4.33068 45.7782 4.32561 45.6808 4.32504L45.68 4.325ZM44.4165 25.538L50.7257 25.6884V25.7892C53.5697 26.0136 56.3948 26.0425 58.1847 28.4009C58.1594 28.5548 58.0992 28.6974 58.0044 28.8267C56.0602 29.4328 54.0413 29.691 52.0973 29.5165C49.2898 29.1435 46.6728 27.7702 44.4166 25.5379L44.4165 25.538ZM75.5825 25.538C73.3264 27.7703 70.7098 29.1436 67.9023 29.5166C65.9582 29.6911 63.9394 29.4329 61.9952 28.8267C61.9004 28.6974 61.8401 28.5549 61.8149 28.4009C63.6048 26.0426 66.4293 26.0136 69.2734 25.7892V25.6884L75.5825 25.538ZM22.1405 28.0562C19.9839 28.4301 17.8292 28.6889 15.6794 28.698C15.4868 28.6973 15.2945 28.6938 15.1022 28.6897C17.4637 28.6545 19.7869 28.4082 22.0945 28.0634C22.1098 28.0611 22.1251 28.0585 22.1405 28.0562H22.1405ZM97.8585 28.0562C97.8738 28.0585 97.8891 28.0611 97.9045 28.0634C100.212 28.4082 102.535 28.6545 104.897 28.6897C104.704 28.6938 104.512 28.6973 104.319 28.698C102.169 28.6889 100.015 28.4301 97.8585 28.0562H97.8585ZM59.9995 29.438L60.4713 29.5486L62.7843 30.1227C61.782 29.9402 60.8922 29.8503 59.9995 29.855C59.1067 29.8503 58.2172 29.9401 57.2147 30.1227L59.5288 29.5486L59.9995 29.438ZM53.263 30.0023C53.3315 30.0051 53.4018 30.0105 53.4697 30.0126C53.4007 30.0104 53.332 30.0054 53.263 30.0023ZM66.738 30.0023C66.6687 30.0054 66.5996 30.0104 66.5303 30.0126C66.5986 30.0105 66.6691 30.0051 66.738 30.0023Z" fill="#7E3C00"/>
</svg>
