<svg width="39" height="13" viewBox="0 0 39 13" fill="none" xmlns="http://www.w3.org/2000/svg">
<path d="M0.0816439 6.03462C-0.800786 9.21992 5.66745 12.883 9.94775 12.8461C18.7217 12.7706 22.7837 10.1752 29.1157 8.48792C33.7938 7.24122 36.9162 6.87573 38.5231 8.08361C36.2792 4.27801 30.0855 5.41921 26.6171 6.26581C19.776 7.93561 11.8371 11.9613 4.65714 10.325C2.36214 9.80203 0.421543 7.47041 0.0827425 6.03451L0.0816439 6.03462Z" fill="#7E3C00"/>
<path d="M36.1466 4.90862C35.0421 2.94462 30.4274 2.00642 27.9445 1.99842C23.1873 1.98313 18.8538 3.97053 14.4015 5.51093C11.7103 6.44208 8.81294 7.94712 5.90034 7.62342C2.56494 7.2527 1.77794 3.36282 4.64434 2.12242C7.11104 1.05492 11.1407 0.143129 14.9793 3.32123C12.4553 -1.70447 1.98034 -0.908177 2.04134 4.90872C2.07951 8.57722 6.98654 9.05732 9.69994 8.87042C14.8832 8.51347 18.3973 6.92972 23.2759 5.28282C26.4852 4.19932 32.407 2.86052 36.1469 4.90872L36.1466 4.90862Z" fill="#7E3C00"/>
</svg>
