<?xml version="1.0" encoding="UTF-8" standalone="no"?>
<svg
   xmlns:dc="http://purl.org/dc/elements/1.1/"
   xmlns:cc="http://creativecommons.org/ns#"
   xmlns:rdf="http://www.w3.org/1999/02/22-rdf-syntax-ns#"
   xmlns:svg="http://www.w3.org/2000/svg"
   xmlns="http://www.w3.org/2000/svg"
   xmlns:sodipodi="http://sodipodi.sourceforge.net/DTD/sodipodi-0.dtd"
   xmlns:inkscape="http://www.inkscape.org/namespaces/inkscape"
   width="256mm"
   height="34mm"
   viewBox="0 0 256 34"
   version="1.1"
   id="svg8"
   inkscape:version="1.0.1 (0767f8302a, 2020-10-17)"
   sodipodi:docname="decoracao.svg">
  <defs
     id="defs2" />
  <sodipodi:namedview
     id="base"
     pagecolor="#ffffff"
     bordercolor="#666666"
     borderopacity="1.0"
     inkscape:pageopacity="0.0"
     inkscape:pageshadow="2"
     inkscape:zoom="1.4494961"
     inkscape:cx="504.93342"
     inkscape:cy="67.68858"
     inkscape:document-units="mm"
     inkscape:current-layer="layer1"
     inkscape:document-rotation="0"
     showgrid="false"
     inkscape:window-width="1920"
     inkscape:window-height="1043"
     inkscape:window-x="0"
     inkscape:window-y="0"
     inkscape:window-maximized="1" />
  <metadata
     id="metadata5">
    <rdf:RDF>
      <cc:Work
         rdf:about="">
        <dc:format>image/svg+xml</dc:format>
        <dc:type
           rdf:resource="http://purl.org/dc/dcmitype/StillImage" />
        <dc:title></dc:title>
      </cc:Work>
    </rdf:RDF>
  </metadata>
  <g
     inkscape:label="Layer 1"
     inkscape:groupmode="layer"
     id="layer1">
    <path
       id="path135"
       style="fill:#b3b3b3;fill-opacity:1;stroke-width:0.132292"
       d="m -0.07178912,16.355081 -0.07544759,0.644922 -0.0759644,0.644921 H 55.35842 110.94004 l -0.0755,-0.644921 -0.076,-0.644922 H 55.35842 Z m 145.25624912,0 -0.0775,0.556684 c -0.0426,0.306192 -0.0167,0.596449 0.0579,0.645051 0.11268,0.07343 9.52332,0.08558 55.59712,0.0717 l 55.46122,-0.01667 v -0.628385 -0.628385 h -55.51909 z" />
    <path
       style="fill:#b3b3b3;stroke-width:0.264583"
       d="m 142.15855,32.738371 c -0.54608,0.27071 -0.95039,0.2935 -1.62059,0.0913 -0.66753,-0.20138 -1.40122,-0.90858 -2.90622,-2.80131 -1.10728,-1.39256 -3.22094,-3.90114 -4.69702,-5.57463 -1.47608,-1.673494 -3.08834,-3.489194 -3.58279,-4.034904 -0.49446,-0.5457 -1.01786,-0.99219 -1.16311,-0.99219 -0.14526,0 -2.11753,1.9943 -4.38282,4.431784 -2.26529,2.43747 -4.85285,5.28358 -5.75013,6.3247 -0.9551,1.10821 -1.97388,2.01232 -2.45754,2.18092 -0.62045,0.21629 -0.99882,0.2055 -1.51968,-0.0433 -0.39473,-0.18857 -0.73139,-0.59755 -0.78138,-0.94927 -0.0483,-0.33987 0.0531,-0.95827 0.22541,-1.37421 0.18084,-0.43659 1.56004,-1.75621 3.26284,-3.12189 1.62227,-1.30109 4.52717,-3.763954 6.45532,-5.473014 1.92815,-1.70907 3.50573,-3.24251 3.50573,-3.40764 0,-0.16514 -0.93808,-1.23282 -2.08461,-2.37263 -1.90942,-1.89823 -2.1517,-2.05764 -2.88301,-1.89702 -0.48357,0.10621 -1.14829,0.0261 -1.6857,-0.20328 -0.48802,-0.20825 -1.66121,-1.19735 -2.6071,-2.198012 -0.94589,-1.000656 -2.60552,-2.8313168 -3.68807,-4.0681348 -1.08256,-1.236819 -2.15327,-2.486885 -2.37936,-2.777927 -0.29124,-0.374904 -0.18292,-0.336335 0.37154,0.132292 0.43045,0.363802 2.11595,1.951884 3.74557,3.529073 1.62962,1.577187 3.05955,2.8660378 3.17762,2.8641148 0.11807,-0.0019 0.24679,-0.101727 0.28604,-0.221782 0.0393,-0.120054 -1.47582,-1.8687248 -3.36682,-3.8859348 -1.891,-2.017213 -3.43819,-3.713853 -3.43819,-3.770313 0,-0.05646 0.0715,-0.102658 0.15879,-0.102658 0.0873,0 1.70175,1.518047 3.58758,3.373437 1.88583,1.855391 3.60031,3.4119346 3.80996,3.4589826 0.20964,0.04705 0.38117,-0.05423 0.38117,-0.2250616 0,-0.170834 -1.55018,-1.923447 -3.44484,-3.894694 -1.89467,-1.971246 -3.38538,-3.643555 -3.31269,-3.716244 0.0727,-0.07269 1.74432,1.433068 3.71475,3.346127 1.97042,1.913056 3.69925,3.478286 3.84185,3.478286 0.1426,0 0.25927,-0.132373 0.25927,-0.294163 0,-0.16179 -1.48828,-1.87257 -3.30729,-3.801735 -1.81902,-1.929164 -3.3073,-3.595997 -3.3073,-3.704071 0,-0.10807503 1.27993,0.994071 2.84427,2.449213 1.56435,1.455142 3.58027,3.343646 4.47981,4.196673 0.89955,0.853027 1.71621,1.878703 1.8148,2.2792796 0.0986,0.4005792 0.12783,1.1688702 0.065,1.7073122 -0.10811,0.9261 0.005,1.09939 2.08878,3.207 l 2.20306,2.228 2.04956,-1.94701 2.04954,-1.94702 0.0103,-1.59142 c 0.008,-1.245316 0.17759,-1.8975248 0.77963,-2.9988288 0.42316,-0.77407 1.51224,-2.102313 2.42019,-2.951655 0.99384,-0.929685 2.51213,-1.975358 3.81507,-2.6275 1.61862,-0.810141 2.47972,-1.083241 3.41553,-1.083241 0.87619,0 1.38253,0.145039 1.68915,0.483854 0.25734,0.284358 0.43788,0.930412 0.43788,1.566921 0,0.752334 -0.34338,1.755608 -1.12448,3.285466 -0.76408,1.496533 -1.67567,2.7601038 -2.84427,3.9425268 -0.94588,0.957067 -2.2848,2.009677 -2.97535,2.339117 -0.90929,0.43379 -1.71659,0.59545 -2.92716,0.58616 l -1.6716,-0.0128 -1.95591,1.96905 -1.95591,1.96905 0.78203,0.82685 c 0.43011,0.45476 2.38937,2.27479 4.3539,4.04451 1.96453,1.769724 4.44065,3.918334 5.50248,4.774684 1.06183,0.85636 2.16315,1.85267 2.44739,2.21402 0.28424,0.36134 0.5168,1.0546 0.5168,1.54056 0,0.70006 -0.15112,0.95848 -0.72761,1.24427 z"
       id="path133"
       sodipodi:nodetypes="sssssssssssssssssssssssssssssssssssssssssscccccsssssssssscccsssssss" />
  </g>
</svg>
