<svg width="129" height="17" viewBox="0 0 129 17" fill="none" xmlns="http://www.w3.org/2000/svg">
<path d="M95.8444 8.59765C96.5734 8.96765 97.3028 9.33974 98.0338 9.70894C104.932 14.3959 112.19 18.8753 120.67 16.1934C123.103 15.4247 125.275 13.8883 126.763 11.8101C127.574 10.6771 128.19 9.40475 128.569 8.06264C129.135 6.05886 129.103 4.02585 128.707 1.99701C128.666 1.78577 128.675 1.45181 128.479 1.31368C128.437 1.2847 128.39 1.26694 128.339 1.26172C127.743 1.20036 128.077 2.03879 128.135 2.29834C128.579 4.31124 127.802 6.43043 126.762 8.13314C125.67 9.91993 124.101 11.4062 122.3 12.4608C121.69 12.8177 121.052 13.1256 120.392 13.3768C119.834 13.5888 119.268 13.7622 118.697 13.9034C120.613 12.9047 122.201 11.3884 123.102 9.25566C124.566 5.78705 122.868 1.84374 119.421 0.437132C116.164 -0.892188 112.228 0.930895 111.185 4.27338C110.522 6.39936 111.832 8.78017 113.937 9.42721C114.243 9.52147 114.56 9.57839 114.88 9.59354C115.253 9.61101 115.65 9.56793 115.95 9.34417C116.084 9.24417 116.199 9.09324 116.188 8.92587C116.165 8.56371 115.75 8.72638 115.524 8.70941C115.217 8.68617 114.915 8.60497 114.635 8.47781C114.074 8.22218 113.595 7.77698 113.32 7.22159C112.861 6.29073 112.988 5.10607 113.612 4.27756C114.892 2.57747 117.417 2.90359 118.734 4.37339C120.129 5.92805 119.669 8.34986 118.581 9.89904C117.269 11.7673 114.864 12.5135 112.702 12.6914C109.023 12.9945 105.233 11.8871 101.854 10.5299C99.6649 9.65072 97.5623 8.57076 95.4977 7.42369C89.0752 3.06183 82.388 -0.985405 74.4128 0.797466C71.6581 1.41317 69.1264 3.03154 67.3747 5.24576C66.5142 6.33408 65.8663 7.61848 65.4635 8.95955C65.2593 9.63923 65.1147 10.3367 65.0269 11.0411C64.9602 11.5759 64.7161 12.6373 65.1918 13.0441C65.6214 13.4118 65.9335 12.6329 66.0432 12.3326C66.31 11.602 66.5212 10.8612 66.8896 10.1716C67.2968 9.41024 67.7952 8.69923 68.3696 8.05585C69.5875 6.68788 71.1233 5.62751 72.7848 4.87316C72.9367 4.80447 73.0891 4.7379 73.2431 4.67393C71.6664 7.17721 72.0429 10.6826 74.7067 12.6632C76.3857 13.9118 79.0411 13.8157 80.406 12.1315C80.7223 11.7414 80.958 11.2853 81.082 10.7978C81.255 10.1207 81.2149 9.37159 80.9755 8.7068C80.852 8.36291 80.6243 8.02008 80.3984 7.73703C80.2945 7.60726 80.1478 7.41429 79.9777 7.36912C79.7628 7.31139 79.5997 7.52762 79.6354 7.72711C79.6804 7.97516 79.9532 8.14045 80.091 8.33315C80.7212 9.21701 80.7303 10.3884 80.0103 11.2257C79.5359 11.7775 78.8161 12.0952 78.0903 12.125C76.976 12.1707 75.8811 11.6096 75.3473 10.6207C74.8302 9.66351 74.7674 8.46501 75.0521 7.42552C75.105 7.23335 75.1709 7.04404 75.2512 6.86152C76.4073 4.23944 79.0065 3.53574 81.6828 3.54384C86.6774 4.06867 91.4253 6.35418 95.8444 8.59765" fill="#7E3C00"/>
<path d="M33.1556 8.59765C32.4267 8.96765 31.6973 9.33974 30.9662 9.70894C24.0678 14.3959 16.8101 18.8753 8.32964 16.1934C5.89759 15.4247 3.72481 13.8883 2.23755 11.8101C1.42658 10.6771 0.809682 9.40475 0.430814 8.06264C-0.135106 6.05886 -0.103245 4.02585 0.293026 1.99701C0.334654 1.78577 0.324574 1.45181 0.521082 1.31368C0.562791 1.2847 0.610127 1.26694 0.661006 1.26172C1.25774 1.20036 0.923059 2.03879 0.865537 2.29834C0.421461 4.31124 1.19801 6.43043 2.23846 8.13314C3.32958 9.91993 4.89877 11.4062 6.70009 12.4608C7.30988 12.8177 7.94814 13.1256 8.60829 13.3768C9.16624 13.5888 9.73216 13.7622 10.3027 13.9034C8.38714 12.9047 6.79851 11.3884 5.89819 9.25566C4.43401 5.78705 6.13195 1.84374 9.57911 0.437132C12.8357 -0.892188 16.7723 0.930895 17.8149 4.27338C18.4779 6.39936 17.1683 8.78017 15.0631 9.42721C14.7573 9.52147 14.4398 9.57839 14.1198 9.59354C13.7467 9.61101 13.3497 9.56793 13.0499 9.34417C12.9156 9.24417 12.8005 9.09324 12.8115 8.92587C12.8352 8.56371 13.2502 8.72638 13.4759 8.70941C13.7828 8.68617 14.0847 8.60497 14.3648 8.47781C14.9263 8.22218 15.4056 7.77698 15.6799 7.22159C16.1392 6.29073 16.0122 5.10607 15.3879 4.27756C14.1077 2.57747 11.5833 2.90359 10.2655 4.37339C8.87094 5.92805 9.33112 8.34986 10.4191 9.89904C11.7312 11.7673 14.1357 12.5135 16.2983 12.6914C19.9774 12.9945 23.7674 11.8871 27.1458 10.5299C29.3349 9.65072 31.4375 8.57076 33.5026 7.42369C39.9251 3.06183 46.6118 -0.985405 54.587 0.797466C57.342 1.41317 59.8737 3.03154 61.6251 5.24576C62.4859 6.33408 63.1338 7.61848 63.5365 8.95955C63.7405 9.63923 63.8854 10.3367 63.9731 11.0411C64.0398 11.5759 64.2837 12.6373 63.8082 13.0441C63.3784 13.4118 63.0665 12.6329 62.9569 12.3326C62.6898 11.602 62.4788 10.8612 62.1102 10.1716C61.7035 9.41024 61.2049 8.69923 60.6307 8.05585C59.4125 6.68788 57.8765 5.62751 56.215 4.87316C56.0636 4.80447 55.9107 4.7379 55.7572 4.67393C57.3339 7.17721 56.9574 10.6826 54.2931 12.6632C52.6144 13.9118 49.9589 13.8157 48.5938 12.1315C48.2776 11.7414 48.0421 11.2853 47.9178 10.7978C47.7453 10.1207 47.7854 9.37159 48.0243 8.7068C48.1481 8.36291 48.3755 8.02008 48.6016 7.73703C48.7056 7.60726 48.852 7.41429 49.0221 7.36912C49.2373 7.31139 49.4001 7.52762 49.3644 7.72711C49.3194 7.97516 49.0469 8.14045 48.9091 8.33315C48.2789 9.21701 48.2695 10.3884 48.9898 11.2257C49.4642 11.7775 50.184 12.0952 50.9098 12.125C52.024 12.1707 53.1187 11.6096 53.6531 10.6207C54.1699 9.66351 54.2327 8.46501 53.948 7.42552C53.8951 7.23335 53.8292 7.04404 53.7487 6.86152C52.5927 4.23944 49.9933 3.53574 47.3173 3.54384C42.3224 4.06867 37.5748 6.35418 33.1556 8.59765" fill="#7E3C00"/>
</svg>
